<?xml version="1.0" encoding="UTF-8"?>
<svg width="17px" height="24px" viewBox="0 0 17 24" version="1.1" xmlns="http://www.w3.org/2000/svg" xmlns:xlink="http://www.w3.org/1999/xlink">
    <!-- Generator: sketchtool 48.2 (47327) - http://www.bohemiancoding.com/sketch -->
    <title>C1FFA470-73D5-45E2-8139-D9148F8FE04F</title>
    <desc>Created with sketchtool.</desc>
    <defs></defs>
    <g id="Избранное---Новый-хедр-с-раскрыающимся-меню-v1-Copy" stroke="none" stroke-width="1" fill="none" fill-rule="evenodd" transform="translate(-825.000000, -102.000000)">
        <g id="запеченые" transform="translate(825.000000, 102.000000)">
            <path d="M13.936632,10.4082468 C15.2830841,11.7685082 16.1122151,13.6198621 16.1122151,15.6598475 C16.1122151,19.8353539 12.6410366,23.220559 8.35906876,23.220559 C4.07710094,23.220559 0.606339255,19.8357604 0.606339255,15.6598475 C0.606339255,13.8893938 1.23037604,12.2612269 2.27543964,10.972922" id="Shape" stroke="#ED1B34" stroke-width="1.2" stroke-linecap="round" stroke-linejoin="round"></path>
            <path d="M10.7910197,15.6598475 C10.7910197,16.9701053 9.70260286,18.0315644 8.35906876,18.0315644 C7.01595152,18.0315644 5.9271178,16.9701053 5.9271178,15.6598475 C5.9271178,14.3499964 7.01595152,13.2881307 8.35906876,13.2881307 C9.702186,13.2881307 10.7910197,14.3504029 10.7910197,15.6598475" id="Shape" fill="#ED1B34"></path>
            <path d="M5.88687203,0.792333938 C5.88687203,0.792333938 3.9067954,1.9021706 4.46621916,3.48602541 C4.81304521,4.46780399 5.80766897,4.77473684 5.79266207,6.13987659 C5.77598774,7.6643775 4.46621916,8.56322323 4.46621916,8.56322323" id="Shape" stroke="#ED1B34" stroke-width="1.2" stroke-linecap="round" stroke-linejoin="round"></path>
            <path d="M9.55480766,0.792333938 C9.55480766,0.792333938 7.57473103,1.9021706 8.13415479,3.48602541 C8.48056398,4.46780399 9.4756046,4.77473684 9.4605977,6.13987659 C9.44350651,7.6643775 8.13415479,8.56322323 8.13415479,8.56322323" id="Shape" stroke="#ED1B34" stroke-width="1.2" stroke-linecap="round" stroke-linejoin="round"></path>
            <path d="M13.2231602,0.792333938 C13.2231602,0.792333938 11.2426667,1.9021706 11.8029241,3.48602541 C12.1489165,4.46780399 13.1443739,4.77473684 13.1289502,6.13987659 C13.1122759,7.6643775 11.8029241,8.56322323 11.8029241,8.56322323" id="Shape" stroke="#ED1B34" stroke-width="1.2" stroke-linecap="round" stroke-linejoin="round"></path>
        </g>
    </g>
</svg>