<svg width="24" height="24" viewBox="0 0 24 24" fill="none" xmlns="http://www.w3.org/2000/svg">
<path fill-rule="evenodd" clip-rule="evenodd" d="M4 12.0136C4 8.25589 6.55465 5.04637 10.2123 4.20765C15.3462 3.03242 20 7.00904 20 12.0135C20 16.252 16.6966 19.7232 12.5333 19.9999L11.4667 20C7.30345 19.7232 4 16.252 4 12.0136ZM5.06665 12.0135C5.06665 15.8427 8.17705 18.9582 12 18.9582C15.823 18.9582 18.9333 15.8427 18.9333 12.0136C18.9333 11.442 18.8639 10.8864 18.7327 10.3543C18.7477 10.5296 18.7551 10.7059 18.7551 10.8832C18.7551 12.5799 18.0959 14.1739 16.8981 15.3727C14.8788 17.3952 11.5946 17.3952 9.5754 15.3727C8.7477 14.5436 8.33275 13.4528 8.33275 12.364C8.33275 11.2753 8.7466 10.1845 9.5754 9.35534C10.8991 8.02837 13.2095 8.02837 14.5333 9.35534C15.0837 9.90554 15.3855 10.6374 15.3855 11.4174C15.3855 12.1973 15.0826 12.9281 14.5333 13.4794C13.5829 14.4324 12.0394 14.4314 11.089 13.4794C10.7007 13.0916 10.4874 12.5734 10.4874 12.0242C10.4874 11.4751 10.7018 10.9579 11.089 10.569C11.297 10.3607 11.6352 10.3607 11.8432 10.569C11.9477 10.6738 11.9989 10.8105 11.9989 10.9473C11.9989 11.084 11.9466 11.2208 11.8432 11.3255C11.6565 11.5124 11.5541 11.7614 11.5541 12.0253C11.5541 12.2902 11.6576 12.5381 11.8432 12.7251C12.3765 13.2593 13.2458 13.2593 13.7792 12.7251C14.1279 12.3767 14.3189 11.912 14.3189 11.4184C14.3189 10.9248 14.1269 10.4611 13.7792 10.1117C12.8575 9.18752 11.2512 9.18752 10.3295 10.1117C9.70875 10.7335 9.3994 11.5498 9.3994 12.365C9.3994 13.1802 9.7098 13.9965 10.3295 14.6183C11.9327 16.2231 14.5408 16.2231 16.144 14.6183C17.1403 13.6204 17.6885 12.2945 17.6885 10.8841C17.6885 9.47384 17.1402 8.14686 16.144 7.15002C14.6304 5.63183 12.5375 4.9416 10.4085 5.25787C7.28 5.97585 5.06665 8.75696 5.06665 12.0135Z" fill="#ED1B34"/>
</svg>
