<?xml version="1.0" encoding="UTF-8"?>
<svg width="26px" height="26px" viewBox="0 0 26 26" version="1.1" xmlns="http://www.w3.org/2000/svg" xmlns:xlink="http://www.w3.org/1999/xlink">
    <!-- Generator: sketchtool 48.2 (47327) - http://www.bohemiancoding.com/sketch -->
    <title>EC02A909-7657-4B4B-93F2-B6F008A780CE</title>
    <desc>Created with sketchtool.</desc>
    <defs></defs>
    <g id="Избранное---Новый-хедр-с-раскрыающимся-меню-v1-Copy" stroke="none" stroke-width="1" fill="none" fill-rule="evenodd" transform="translate(-927.000000, -98.000000)">
        <g id="souce-copy-2" transform="translate(908.000000, 99.000000)">
            <g id="Ролы-Copy-2" transform="translate(20.000000, 0.000000)">
                <path d="M23.8399326,15.36 L23.8399326,16.6973257 C23.8399326,18.5604387 23.0956904,20.2534516 21.8826391,21.5060615 C20.5841113,22.8469354 18.7483783,23.6831543 16.7132968,23.6831543 L7.12663579,23.6831543 C3.19043368,23.6831543 0,20.5548343 0,16.6973257 L0,15.36" id="Shape" stroke="#ED1B34" stroke-width="1.2" stroke-linecap="round" stroke-linejoin="round"></path>
                <g id="Group-2" transform="translate(3.840000, 15.360000)" fill="#ED1B34">
                    <path d="M13.7587357,4.59529953 C14.9951552,4.59529953 15.9974713,3.56660669 15.9974713,2.29764976 C15.9974713,1.02869284 14.9951552,0 13.7587357,0 C12.5223161,0 11.52,1.02869284 11.52,2.29764976 C11.52,3.56660669 12.5223161,4.59529953 13.7587357,4.59529953 Z" id="Oval"></path>
                    <path d="M7.99873567,4.59529953 C9.23515524,4.59529953 10.2374713,3.56660669 10.2374713,2.29764976 C10.2374713,1.02869284 9.23515524,0 7.99873567,0 C6.7623161,0 5.76,1.02869284 5.76,2.29764976 C5.76,3.56660669 6.7623161,4.59529953 7.99873567,4.59529953 Z" id="Oval"></path>
                    <path d="M2.23873567,4.59529953 C3.47515524,4.59529953 4.47747134,3.56660669 4.47747134,2.29764976 C4.47747134,1.02869284 3.47515524,0 2.23873567,0 C1.0023161,0 0,1.02869284 0,2.29764976 C0,3.56660669 1.0023161,4.59529953 2.23873567,4.59529953 Z" id="Oval"></path>
                </g>
                <g id="Group-3" transform="translate(4.800000, 0.000000)" stroke="#ED1B34" stroke-linecap="round" stroke-linejoin="round" stroke-width="1.2">
                    <path d="M2.34967579,0.486125714 C2.34967579,0.486125714 -0.530324211,2.10852571 0.283351579,4.42445714 C0.787806316,5.85906286 2.23508211,6.30774857 2.21386105,8.30336 C2.18900211,10.5319314 0.283351579,11.8458971 0.283351579,11.8458971" id="Shape"></path>
                    <path d="M7.68586105,0.486125714 C7.68586105,0.486125714 4.80586105,2.10852571 5.61953684,4.42445714 C6.12338526,5.85906286 7.57066105,6.30774857 7.54883368,8.30336 C7.52458105,10.5319314 5.61953684,11.8458971 5.61953684,11.8458971" id="Shape"></path>
                    <path d="M13.02144,0.486125714 C13.02144,0.486125714 10.1408337,2.10852571 10.9551158,4.42445714 C11.4589642,5.85906286 12.90624,6.30774857 12.8844126,8.30336 C12.86016,10.5319314 10.9551158,11.8458971 10.9551158,11.8458971" id="Shape"></path>
                </g>
            </g>
        </g>
    </g>
</svg>