<svg xmlns="http://www.w3.org/2000/svg" width="34" height="22" viewBox="0 0 190 134.7"><path fill="none" stroke="#E20613" stroke-width="3" stroke-miterlimit="10" d="M124.6-165.3H-60c-.1 0-.2-.1-.2-.2v-27.3s0-.1.1-.1l184.6.5s.1 0 .1.1l.2 26.7c0 .1-.1.3-.2.3zm-156.3-57.6H96.8"/><path fill="none" stroke="#E20613" stroke-width="3" stroke-miterlimit="10" d="M124.6-192.4l-27.8-30.5-10-64H-23.7l-8 64-28.5 30"/><path fill="none" stroke="#E20613" stroke-width="3" stroke-miterlimit="10" d="M-23.7-286.9l5.5 10.7-5.5 53.3m5.5-53.3h98.7l6.3-10.7m-6.3 10.7l8 53.3"/><g fill="#E20613"><path d="M480.4-175.2c2.6 0 5.2-.3 7.1-1 .2 0 .3-.1.4-.2 1.3-.5 2.1-1.2 2.1-2.1 0-2.1-5-3.3-9.6-3.3-4.7 0-9.6 1.1-9.6 3.3 0 2.2 4.9 3.3 9.6 3.3zm-1.1-1.2s-.1 0 0 0l-4.6-3.6c.6-.2 1.4-.3 2.2-.4l5.2 4h-2.8zm9.2-2.1c0 .3-.4.6-1 1l-3.8-2.9c3.1.4 4.8 1.3 4.8 1.9zm-7.1-2.1l4.7 3.6c-.6.2-1.3.3-2.1.4l-5.2-4h2.6zm-8.2 1.2l3.7 2.8c-3-.4-4.7-1.2-4.7-1.9.1-.3.4-.6 1-.9zm-7.2 13.8c4.7 0 9.6-1.1 9.6-3.3 0-2.1-5-3.3-9.6-3.3-4.7 0-9.6 1.1-9.6 3.3-.1 2.1 4.9 3.3 9.6 3.3zm-5.3-1.7l3-1.9 3.1 2.4h-.9c-2.1 0-3.8-.2-5.2-.5zm13.4-1.6c0 .7-2 1.6-5.3 2l-1.3-1 3.8-2.5c1.8.4 2.8 1 2.8 1.5zm-4.6-1.9l-3.1 2-2.8-2.2c.7-.1 1.5-.1 2.4-.1 1.3.1 2.5.2 3.5.3zm-7.8.1l.9.7-3.5 2.2c-.9-.4-1.4-.8-1.4-1.1.1-.6 1.5-1.4 4-1.8z"/><path d="M508.5-159.6h1.5v-9.4c0-3.3-6.3-5.9-14.4-6.1v-3.5c0-3.4-6.7-6.1-15.2-6.1s-15.2 2.7-15.2 6.1v3.5c-8.2.1-14.4 2.8-14.4 6.1v9.2h1.5v-6.5c2.4 2 7.6 3.4 13.6 3.4s11.2-1.4 13.6-3.4v6.6h1.6v-6.6c2.4 2 7.6 3.4 13.6 3.4s11.2-1.4 13.6-3.4v6.7zm-28.1-23.8c7.4 0 13.6 2.3 13.6 4.9s-6.2 4.9-13.6 4.9-13.6-2.3-13.6-4.9 6.2-4.9 13.6-4.9zm13.6 7.6v.8h-1.3c.6-.2 1-.5 1.3-.8zm-27.2 0c.4.3.8.6 1.3.9h-1.3v-.9zM466-164c-7.4 0-13.6-2.3-13.6-4.9 0-2.7 6.2-4.9 13.6-4.9s13.6 2.3 13.6 4.9c0 2.7-6.2 4.9-13.6 4.9zm14.4-6.8c-.5-.6-1.2-1.2-2.1-1.7.7 0 1.4.1 2.1.1.7 0 1.4 0 2.1-.1-.9.6-1.6 1.1-2.1 1.7zm14.4 6.8c-7.4 0-13.6-2.3-13.6-4.9 0-2.7 6.2-4.9 13.6-4.9 7.4 0 13.6 2.3 13.6 4.9.1 2.7-6.2 4.9-13.6 4.9z"/><path d="M485.2-168.9c0 2.1 5 3.3 9.6 3.3s9.6-1.1 9.6-3.3c0-2.1-5-3.3-9.6-3.3s-9.6 1.2-9.6 3.3zm17.8 0c0 .9-3.1 2.1-8.1 2.1s-8.1-1.2-8.1-2.1c0-.9 3.1-2.1 8.1-2.1s8.1 1.2 8.1 2.1z"/><path d="M489.7-168.9c0 1.2 3.2 1.3 5.1 1.3s5.1-.2 5.1-1.3-3.2-1.3-5.1-1.3c-1.9 0-5.1.2-5.1 1.3zm5.1.2c-1.2 0-2.1-.1-2.7-.2.6-.1 1.6-.2 2.7-.2 1.2 0 2.1.1 2.7.2-.6.1-1.5.2-2.7.2z"/></g><g fill="#E20613"><path d="M483.9-215.9c2.6 0 5.2-.3 7.1-1 .2 0 .3-.1.4-.2 1.3-.5 2.1-1.2 2.1-2.1 0-2.1-5-3.3-9.6-3.3s-9.6 1.1-9.6 3.3c-.1 2.1 4.9 3.3 9.6 3.3zm-1.1-1.2c-.1 0-.1-.1 0 0l-4.6-3.6c.6-.2 1.4-.3 2.2-.4l5.2 4h-2.8zm9.2-2.1c0 .3-.4.6-1 1l-3.8-2.9c3 .4 4.8 1.2 4.8 1.9zm-7.2-2.1l4.7 3.6c-.6.2-1.3.3-2.1.4l-5.2-4h2.6zm-8.1 1.2l3.7 2.8c-3-.4-4.7-1.2-4.7-1.9 0-.3.4-.6 1-.9zm-7.3 13.7c4.7 0 9.6-1.1 9.6-3.3 0-2.1-5-3.3-9.6-3.3-4.7 0-9.6 1.1-9.6 3.3 0 2.2 5 3.3 9.6 3.3zm-5.2-1.6l3-1.9 3.1 2.4h-.9c-2.1 0-3.9-.2-5.2-.5zm13.4-1.6c0 .7-2 1.6-5.3 2l-1.3-1 3.8-2.5c1.8.4 2.8 1 2.8 1.5zm-4.6-1.9l-3.1 2-2.8-2.2c.7-.1 1.5-.1 2.4-.1 1.3.1 2.4.1 3.5.3zm-7.8.1l.9.7-3.5 2.2c-.9-.4-1.4-.8-1.4-1.1.1-.6 1.5-1.4 4-1.8z"/><path d="M512-200.3h1.5v-9.4c0-3.3-6.3-5.9-14.4-6.1v-3.5c0-3.4-6.7-6.1-15.2-6.1s-15.2 2.7-15.2 6.1v3.5c-8.2.1-14.4 2.8-14.4 6.1v9.2h1.5v-6.5c2.4 2 7.6 3.4 13.6 3.4s11.2-1.4 13.6-3.4v6.6h1.6v-6.6c2.4 2 7.6 3.4 13.6 3.4s11.2-1.4 13.6-3.4v6.7zm-28.1-23.8c7.4 0 13.6 2.3 13.6 4.9s-6.2 4.9-13.6 4.9-13.6-2.3-13.6-4.9 6.2-4.9 13.6-4.9zm13.6 7.6v.8h-1.3c.5-.2 1-.5 1.3-.8zm-27.3 0c.4.3.8.6 1.3.9h-1.3v-.9zm-.8 11.8c-7.4 0-13.6-2.3-13.6-4.9 0-2.7 6.2-4.9 13.6-4.9s13.6 2.3 13.6 4.9c.1 2.6-6.2 4.9-13.6 4.9zm14.5-6.8c-.5-.6-1.2-1.2-2.1-1.7.7 0 1.4.1 2.1.1.7 0 1.4 0 2.1-.1-1 .5-1.7 1.1-2.1 1.7zm14.4 6.8c-7.4 0-13.6-2.3-13.6-4.9 0-2.7 6.2-4.9 13.6-4.9 7.4 0 13.6 2.3 13.6 4.9.1 2.6-6.2 4.9-13.6 4.9z"/><path d="M488.7-209.6c0 2.1 5 3.3 9.6 3.3s9.6-1.1 9.6-3.3c0-2.1-5-3.3-9.6-3.3s-9.6 1.2-9.6 3.3zm17.7 0c0 .9-3.1 2.1-8.1 2.1s-8.1-1.2-8.1-2.1c0-.9 3.1-2.1 8.1-2.1 5.1 0 8.1 1.2 8.1 2.1z"/><path d="M493.2-209.6c0 1.2 3.2 1.3 5.1 1.3 1.9 0 5.1-.2 5.1-1.3s-3.2-1.3-5.1-1.3c-1.9 0-5.1.1-5.1 1.3zm5.1.2c-1.2 0-2.1-.1-2.7-.2.6-.1 1.6-.2 2.7-.2 1.2 0 2.1.1 2.7.2-.6.1-1.5.2-2.7.2z"/></g><path fill="none" stroke="#E20613" stroke-width="3" stroke-miterlimit="10" d="M16.3 93l66 25.5.4-18.2-66.4-21.1zm66.4 7.3l63.6-18.9v14l-62.9 24.2m-9.1-47.7c-20 2.4-40.6 4.3-59.6 6.6"/><path fill="#E20613" d="M93.6 50.3c-3 0-5.8 1.2-7.9 3.3l-.5.5-.5-.5c-2.1-2.1-4.9-3.3-7.9-3.3S71 51.5 69 53.5c-2.1 2.1-3.3 4.9-3.2 7.9 0 3 1.2 5.8 3.3 7.9l14.8 14.8c.4.4.8.6 1.3.6s.9-.2 1.3-.5l14.9-14.8c2.1-2.1 3.3-4.9 3.3-7.9s-1.2-5.8-3.2-7.9c-2.2-2.1-5-3.3-7.9-3.3zm5.2 16.4L85.2 80.2 71.7 66.7c-1.4-1.4-2.2-3.3-2.2-5.2 0-2 .8-3.8 2.2-5.2 1.4-1.4 3.2-2.2 5.2-2.2s3.8.8 5.2 2.2l1.8 1.8c.7.7 1.9.7 2.6 0l1.8-1.8c1.4-1.4 3.3-2.2 5.2-2.2 2 0 3.8.8 5.2 2.2 1.4 1.4 2.2 3.3 2.2 5.2.1 1.9-.7 3.8-2.1 5.2z"/><path fill="none" stroke="#E20613" stroke-width="3" stroke-miterlimit="10" d="M97.1 71.9l49.2 9.5 26.9-50.7-58.7-2L97.1 54m77.1-24.2l5.2 8.2-21.8 48.1-10.6-5.9m-.7 4.9l11.3 1"/><path fill="none" stroke="#E20613" stroke-width="3" stroke-miterlimit="10" d="M115.4 29.7l5.4 6.2 48.2 2.8m-48.2-2.8l-18.5 27.3"/></svg>