<?xml version="1.0" encoding="UTF-8"?>
<svg width="16px" height="27px" viewBox="0 0 16 27" version="1.1" xmlns="http://www.w3.org/2000/svg" xmlns:xlink="http://www.w3.org/1999/xlink">
    <!-- Generator: sketchtool 48.2 (47327) - http://www.bohemiancoding.com/sketch -->
    <title>E5975F5E-0085-44BB-942A-ED20FF55A0B3</title>
    <desc>Created with sketchtool.</desc>
    <defs></defs>
    <g id="Избранное---Новый-хедр-с-раскрыающимся-меню-v2" stroke="none" stroke-width="1" fill="none" fill-rule="evenodd" transform="translate(-1188.000000, -104.000000)">
        <g id="drink" transform="translate(1167.000000, 105.000000)" stroke-width="1.2">
            <g id="Group-7" transform="translate(21.000000, 0.000000)">
                <path d="M1.77486802,8.725 C1.74476094,8.725 1.71466847,8.72632649 1.68467816,8.72897562 C1.12078196,8.7787861 0.704033153,9.27629367 0.753843638,9.84018986 L2.04570967,24.4651899 C2.09244457,24.9942679 2.53559587,25.4 3.06673405,25.4 L10.3543186,25.4 C10.8854568,25.4 11.3286081,24.9942679 11.375343,24.4651899 L12.667209,9.84018986 C12.6698581,9.81019955 12.6711846,9.78010708 12.6711846,9.75 C12.6711846,9.18390813 12.2122765,8.725 11.6461846,8.725 L1.77486802,8.725 Z" id="Rectangle" stroke="#E40327"></path>
                <polyline id="Path-7" stroke="#ED1B34" stroke-linecap="round" stroke-linejoin="round" points="5.92105263 22.34375 8.28947368 3.65625 14.6052632 0.40625"></polyline>
            </g>
        </g>
    </g>
</svg>