<svg width="24" height="24" viewBox="0 0 24 24" fill="none" xmlns="http://www.w3.org/2000/svg">
<path d="M19.7812 6.09834V3.3125C19.7812 3.03636 19.5574 2.8125 19.2812 2.8125H18.375V0.5C18.375 0.223858 18.1511 0 17.875 0H14.6563C14.3801 0 14.1562 0.223858 14.1562 0.5V2.8125H13.25C12.9739 2.8125 12.75 3.03636 12.75 3.3125V6.09834L10.0756 9.75333C9.7072 10.2451 9.40022 10.7805 9.15937 11.3438H3.51562C1.57711 11.3438 0 12.9209 0 14.8594C0 16.0082 0.553969 17.0299 1.40869 17.6719C0.553969 18.3138 0 19.3356 0 20.4844C0 22.4229 1.57711 24 3.51562 24H24V14.3906C24 12.7295 23.4516 11.0828 22.4557 9.75342L19.7812 6.09834ZM15.5625 1.40625H16.9688V2.8125H15.5625V1.40625ZM18.375 4.21875V5.625H14.1562V4.21875H18.375ZM1.40625 14.8594C1.40625 13.6963 2.35252 12.75 3.51562 12.7495H8.7097C8.60883 13.2118 8.54995 13.6828 8.53528 14.1562H3.51563C3.1273 14.1562 2.8125 14.471 2.8125 14.8594V14.8594C2.8125 15.2477 3.1273 15.5625 3.51563 15.5625H8.53125V16.9688H3.51562C2.35252 16.9688 1.40625 16.0225 1.40625 14.8594ZM3.51562 22.5938C2.35252 22.5938 1.40625 21.6475 1.40625 20.4844C1.40625 19.3213 2.35252 18.375 3.51562 18.375H8.53125V19.7812H3.51562C3.1273 19.7812 2.8125 20.096 2.8125 20.4844V20.4844C2.8125 20.8727 3.1273 21.1875 3.51563 21.1875H8.53125V22.5938H3.51562ZM22.5938 22.5938H9.9375V14.3906C9.9375 13.0304 10.387 11.682 11.2031 10.5938L13.8099 7.03125H18.7213L21.3281 10.5938C22.1443 11.6819 22.5938 13.0304 22.5938 14.3906V22.5938Z" fill="#F32B2B"/>
<path d="M18.6557 9.37272C17.9585 8.44408 16.6342 8.25494 15.7033 8.95131C14.7702 9.65036 14.5817 10.9718 15.2815 11.9045L16.8285 13.9672C16.919 14.0878 16.9687 14.2374 16.9687 14.3885V15.5606C16.9687 16.7238 17.915 17.67 19.0781 17.67C20.2412 17.67 21.1875 16.7238 21.1875 15.5606V14.3885C21.1875 13.3306 20.8379 12.2819 20.203 11.4357L18.6557 9.37272ZM19.7812 15.5606C19.7812 15.9483 19.4658 16.2638 19.0781 16.2638C18.6904 16.2638 18.375 15.9483 18.375 15.5606V14.3885C18.375 13.9351 18.2253 13.4859 17.9535 13.1235L16.4064 11.0607C16.1732 10.7498 16.236 10.3093 16.5461 10.0771C16.8589 9.84302 17.3003 9.90953 17.531 10.2168L19.0781 12.2795C19.5315 12.8839 19.7812 13.633 19.7812 14.3885V15.5606Z" fill="#F32B2B"/>
</svg>
