<svg width="25" height="25" viewBox="0 0 25 25" xmlns="http://www.w3.org/2000/svg"><title>1AA209B2-A2AC-49C4-B9AA-90C94738A723</title><g stroke="#F11B35" fill="none" fill-rule="evenodd"><path d="M15.664 22.031L13.18 11.765a6.576 6.576 0 0 0-.93-2.133c-.224-.326-.56-.511-.913-.511H5.29c-.35 0-.688.185-.91.511a6.576 6.576 0 0 0-.93 2.133L.966 22.03c-.2.83.318 1.662 1.04 1.662h12.618c.722 0 1.24-.831 1.04-1.662zm-4.787-16.99c-.168 1.296.102 3.078.877 4.13m-6.001-4.13c.168 1.296-.101 3.078-.877 4.13" stroke-width="1.2"/><path d="M11.471 16.163a3.157 3.157 0 1 1-6.31 0 3.157 3.157 0 0 1 6.31 0zM4.624.923c-.39 0-.67.449-.562.897l.239.988c.114.469.282.904.493 1.301.297.558.821.881 1.373.881h4.302c.546 0 1.069-.323 1.366-.875.212-.399.38-.836.495-1.307l.238-.988c.109-.448-.172-.897-.562-.897H4.624z" stroke-width="1.2"/><path d="M19 2v2" stroke-linecap="round"/><path d="M14.241 16.163v-5.88c0-1.158.996-2.098 2.226-2.098h5.548c1.229 0 2.226.94 2.226 2.098v12.4c0 .558-.48 1.01-1.072 1.01h-8.403" stroke-width="1.2"/><path d="M21.118 8h-4.236C16.396 8 16 7.584 16 7.074V4.926c0-.51.396-.926.882-.926h4.236c.486 0 .882.416.882.926v2.148c0 .51-.396.926-.882.926z"/></g></svg>