<svg width="24" height="25" viewBox="0 0 24 25" xmlns="http://www.w3.org/2000/svg"><title>8EDBD5BE-FA90-418B-827E-167876BC8DDF</title><g stroke="#ED1B34" stroke-width="1.2" fill="none" fill-rule="evenodd" stroke-linecap="round" stroke-linejoin="round"><path d="M23.35 10.006v7.693c0 3.684-3.114 6.67-6.956 6.67h-8.42c-3.842 0-6.956-2.986-6.956-6.67v-7.693"/><path d="M7.979 1.464s-2.811 1.55-2.017 3.76c.492 1.37 1.905 1.799 1.884 3.705-.024 2.128-1.884 3.382-1.884 3.382m7.225-10.847s-2.81 1.55-2.017 3.76c.492 1.37 1.905 1.799 1.883 3.705-.023 2.128-1.883 3.382-1.883 3.382m7.225-10.847s-2.812 1.55-2.017 3.76c.492 1.37 1.905 1.799 1.883 3.705-.023 2.128-1.883 3.382-1.883 3.382"/></g></svg>