<svg width="25" height="24" viewBox="0 0 25 24" xmlns="http://www.w3.org/2000/svg"><title>9819E1A7-6379-4B30-8D2A-51A07329C987</title><g stroke="#F11B35" stroke-width="1.2" fill="none" fill-rule="evenodd"><path d="M22.63 14.464a.098.098 0 0 1 .04-.125c.272-.168 1.156-.796.798-1.695-.332-.824-1.186-1.01-1.543-1.053a.216.216 0 0 1-.186-.173c-.065-.319-.29-1.02-1.04-1.315-.91-.355-1.665.138-1.974.391a.184.184 0 0 1-.263-.03c-.32-.412-1.28-1.42-2.712-.82-.1.042-.213-.017-.225-.126-.054-.537-.328-1.866-1.722-2.196-.098-.025-.176-.102-.183-.203-.035-.516-.265-2.072-1.687-2.362-.267-.056-.45-.306-.477-.58-.097-.916-.272-2.689-.272-2.689a.638.638 0 0 0-.78-.467c-.17.044-.228.285-.39.298-.293.026-.5-.34-.805-.26-.304.081-.31.502-.58.623-.149.068-.31-.112-.482-.067a.654.654 0 0 0-.46.794l1.16 2.458a.508.508 0 0 1-.138.623c-.25.194-.488.55-.434 1.199.054.63.521.995.806 1.163.105.06.128.198.052.294a1.898 1.898 0 0 0-.29 1.845c.297.833.698 1.085.926 1.158"/><path d="M23.106 17.522c.256-.3 1.065-1.374.314-2.292-.692-.844-1.764-.737-2.2-.65a.263.263 0 0 1-.28-.135c-.195-.348-.717-1.089-1.707-1.15-1.2-.07-1.906.795-2.171 1.208a.23.23 0 0 1-.323.066c-.527-.363-2.026-1.18-3.487.063-.101.09-.254.071-.307-.054-.258-.603-1.069-2.073-2.835-1.932a.28.28 0 0 1-.288-.17c-.253-.642-1.225-2.643-3.337-2.035-.077.021-1.594-3.654-1.594-3.654a.78.78 0 0 0-1.088-.251c-.184.117-.163.419-.35.497-.335.143-.71-.208-1.039.002-.33.209-.18.705-.45.951-.152.136-.41-.014-.594.104a.807.807 0 0 0-.248 1.106l2.556 2.758c.062.068.07.173.01.243-.213.262-.656.942-.303 1.803.293.721.978.973 1.373 1.062a.242.242 0 0 1 .17.326c-.163.446-.354 1.356.34 2.275.655.865 1.215 1.01 1.51 1.012.121 0 .22.084.225.205.025.505.18 1.686 1.104 2.171 1.319.689 2.166.048 2.412-.184.03-.028.077-.009.083.034.042.382.273 1.674 1.495 1.916 1.087.214 1.738-.542 1.993-.927a.118.118 0 0 1 .21.02c.213.499.862 1.603 2.326 1.273 1.152-.262 1.447-.967 1.522-1.306.014-.066.097-.087.144-.037.22.242.75.687 1.582.567.856-.121 1.717-.792 1.478-1.996-.012-.063.037-.118.096-.099.336.129 1.256.341 1.984-.71.527-.761-.107-1.648-.328-1.918a.128.128 0 0 1 .002-.162z"/></g></svg>